<svg height="567pt" preserveAspectRatio="xMidYMid meet" viewBox="0 0 567 567" width="567pt" xmlns="http://www.w3.org/2000/svg"><g transform="matrix(.1 0 0 -.1 0 567)"><path d="m1350 3915v-675h675 675v675 675h-675-675zm1080 270v-135h-405-405v135 135h405 405zm0-540v-135h-405-405v135 135h405 405z"/><path d="m2970 3915v-675h540 540v-893c0-845-1-894-18-926-35-65-60-71-305-71h-218l135-135 136-135h157c190 0 234 12 304 80 86 85 79-68 79 1787v1643h-675-675zm1080 0v-405h-405-405v405 405h405 405z"/><path d="m1350 2025v-945h135 135v945 945h-135-135z"/><path d="m2160 2295v-675h675 675v675 675h-675-675zm1080 0v-405h-405-405v405 405h405 405z"/></g></svg>